
<?xml version="1.0" encoding="UTF-8"?>
<svg xmlns="http://www.w3.org/2000/svg" version="1.1" viewBox="0 0 841.89 595.28">
  <defs>
    <style>
      .cls-1 {
        fill: #4679bb;
      }

      .cls-2 {
        fill: #2573b7;
      }

      .cls-3 {
        fill: #4679ba;
      }

      .cls-4 {
        fill: #80a3cb;
      }

      .cls-5 {
        fill: #4779ba;
      }

      .cls-6 {
        fill: #306599;
      }

      .cls-7 {
        fill: #f7f7f7;
      }
    </style>
  </defs>
  <!-- Generator: Adobe Illustrator 28.7.1, SVG Export Plug-In . SVG Version: 1.2.0 Build 142)  -->
  <g>
    <g id="Layer_1">
      <g>
        <path class="cls-5" d="M409.31,236.19c8.38-6.2,16.87-12.26,25.09-18.66,3.17-2.47,5.25-2.76,8.27.37,7.13,7.41,14.7,14.39,22,21.63,1.39,1.37,2.8,2.18,4.74,2.35,13.72,1.2,27.43,2.45,41.14,3.72,3.46.32,4.78-.79,4.27-4.53-1.67-12.31-3.37-24.64-4.41-37.01-.42-4.95-2.03-8.54-6.06-11.17-.77-.38-1.16-1.12-1.66-1.75-.49-.63-1.09-1.31-.37-2.13.53-.6,1.21-.38,1.79-.09,1.9.94,4.18.84,5.94,2.14,17.97,5.83,34.69,14.08,49.5,25.89,15.69,12.5,28.27,27.69,36.68,45.89,15.37,33.29,18.87,68.34,15.21,104.6-1.83,18.08-6.14,35.37-13.19,51.89-8.47,19.85-21.46,36.56-38.45,50.05-14.84,11.79-31.55,20.22-49.5,25.78-15.03,4.66-30.55,7.48-46.34,8.88-13.3,1.18-26.58,1.36-39.86.83-30.36-1.21-59.64-7.22-86.74-21.47-7.13-3.75-14.39-7.6-20.25-13.4-12.91-10.14-23.66-22.27-31.95-36.37-6.13-10.43-10.97-21.58-15.05-33.01-3.54-13.28-5.77-26.73-7.15-40.44-1.57-15.68-.41-31.15,1.28-46.62,1.54-14.05,4.65-27.98,10.06-40.96,9.35-22.45,22.72-42.1,42.54-57.16,11.35-8.62,23.89-14.71,36.58-20.66,3.63-1.7,7.71-2.85,11.73-3.81,2.73-.65,4.06,0,3.23,2.84-3.38,11.56-5.95,23.34-9.36,34.89-.44,1.48-.25,2.96-.61,4.42-.77,3.16.3,4.64,3.79,4.5,7.81-.31,15.62.08,23.42.46,4.13.2,8.21.9,12.31,1.36,4.38.49,8.23.07,11.4-3.23Z"/>
        <path class="cls-5" d="M493.07,235.29c-5.9-.58-13-1.35-20.1-1.92-2.05-.17-3.33-1.28-4.64-2.56-4.97-4.88-9.86-9.83-14.95-14.58-2.45-2.29-3.65-4.81-3.92-8.19-.61-7.77-1.55-15.52-2.47-23.26-.44-3.71.19-5.49,4.71-4.85,7.71,1.09,15.51,1.62,23.29,2.11,3.2.2,5.69,1.28,7.92,3.5,5.28,5.28,10.63,10.5,16.01,15.69,1.26,1.22,2.01,2.55,2.2,4.31.87,7.92,1.87,15.82,2.68,23.74.64,6.17.55,6.18-5.51,6.03-1.33-.03-2.66,0-5.2,0Z"/>
        <path class="cls-5" d="M372.05,130.57c8.3,1.49,16.61,2.91,24.88,4.55,1.16.23,2.28,1.38,3.12,2.36,5.72,6.68,11.31,13.48,17.07,20.13,2.09,2.41,1.87,3.69-1.03,5.23-8.01,4.29-15.87,8.86-23.77,13.36-1.42.81-2.93.82-4.36.44-6.87-1.85-13.86-2.99-20.87-4.13-3.13-.51-5.83-1.94-7.97-4.56-5.05-6.16-10.26-12.2-15.56-18.16-2.38-2.67-1.64-4.25,1.15-5.78,7.38-4.06,14.73-8.15,22.03-12.34,1.72-.99,3.43-1.11,5.3-1.1Z"/>
        <path class="cls-1" d="M484.06,176.02c-8.19-4.76-15.33-10.98-23.04-16.42-1.8-1.27-1.76-2.45-.14-3.94,6.96-6.41,13.88-12.88,20.78-19.36,1.63-1.54,3.6-1.47,5.6-1.52,5.48-.15,11.02.1,16.42-.65,6.22-.86,11.27.64,16.06,4.6,5.22,4.31,10.78,8.24,16.33,12.14,2.52,1.77,2.36,3.44.41,5.23-6.6,6.07-13.18,12.17-19.95,18.05-3.28,2.86-7.46,2.28-11.45,2.03-7.01-.27-14.02.04-21.03-.16Z"/>
        <path class="cls-5" d="M397.93,228.72c-7.6-.46-15.55-.96-23.5-1.4-2.21-.12-3.28-.46-2.5-3.25,2.49-8.92,4.65-17.94,6.91-26.92.49-1.94,1.9-3,3.4-4.1,5.76-4.19,11.52-8.39,17.21-12.69,2.12-1.6,4.46-2.38,6.97-2.08,8.11.95,16.25.92,24.38.86,4.14-.03,4.92,1.91,4.08,5.28-2.05,8.16-4.21,16.29-6.29,24.44-.67,2.62-2.54,4.2-4.56,5.69-4.92,3.62-9.92,7.15-14.77,10.86-3.29,2.52-6.7,4.29-11.33,3.29Z"/>
        <path class="cls-3" d="M454.06,109.1c1.61.85.89,2.35.89,3.57.04,17.31-.12,34.61.12,51.92.06,4.51-1.48,5.78-5.76,5.6-6.81-.29-13.64-.15-20.46-.05-2.65.04-4.02-.7-4-3.62.13-18.8.17-37.59.25-56.39,7.07-.04,14.13-.04,21.2.02,2.66.02,5.24-.25,7.77-1.05Z"/>
        <path class="cls-4" d="M271.12,404.99c.02-1.35.05-2.7.07-4.05,3.59,9.56,7.64,18.92,12.36,27.99,4.05,7.77,8.94,14.92,14.61,21.6,4.94,5.81,10.15,11.31,16.12,16.08,1.14.91,2.38,1.85,2.81,3.39-4.45-1.75-7.56-5.25-10.89-8.44-16.05-15.37-26.63-34.23-34.87-54.59-.24-.59-.15-1.32-.22-1.98Z"/>
        <path class="cls-2" d="M454.06,109.1c-.55.58-1.09,1.66-1.65,1.67-9.11.14-18.25,1.36-27.31-.64.14-.72.58-1.27,1.29-1.27,9.22.07,18.46-.68,27.67.24Z"/>
        <path class="cls-6" d="M484.06,176.02c7.02-1.43,14.03-1.72,21.03.16-7.01.6-14.03,1.4-21.03-.16Z"/>
        <path class="cls-7" d="M355.54,291c9.55-12.82,21.58-22.23,37.02-26.97,19.52-7.08,39.86-6.77,60.06-5.79,17.98.87,35.06,6.31,49.83,16.77,13.05,9.24,21.67,22.18,26.18,37.66,3.84,13.18,5.91,26.61,4.29,40.32-1.52,12.89-4.56,25.43-10.89,36.95-11.48,17.74-27.12,29.27-47.97,34.33-15.01,3.64-30.11,5.55-45.32,4.47-20.42-1.46-40.36-5.19-57.45-18.09-9.71-7.32-16.53-16.58-21.86-27.26-8.81-17.63-8.62-36.29-7.06-55.3,1.12-13.67,6.34-25.6,13.19-37.09Z"/>
      </g>
    </g>
  </g>
</svg>